<?xml version="1.0" encoding="UTF-8" standalone="no"?>
<!-- Created with Inkscape (http://www.inkscape.org/) -->

<svg
   width="1600"
   height="512"
   viewBox="0 0 423.33352 135.46653"
   version="1.1"
   id="svg1"
   inkscape:version="1.4.3 (0d15f75, 2025-12-25)"
   sodipodi:docname="logo.svg"
   inkscape:export-filename="dark-hero-logo.svg"
   inkscape:export-xdpi="96"
   inkscape:export-ydpi="96"
   xmlns:inkscape="http://www.inkscape.org/namespaces/inkscape"
   xmlns:sodipodi="http://sodipodi.sourceforge.net/DTD/sodipodi-0.dtd"
   xmlns:xlink="http://www.w3.org/1999/xlink"
   xmlns="http://www.w3.org/2000/svg"
   xmlns:svg="http://www.w3.org/2000/svg"
   xmlns:rdf="http://www.w3.org/1999/02/22-rdf-syntax-ns#"
   xmlns:cc="http://creativecommons.org/ns#"
   xmlns:dc="http://purl.org/dc/elements/1.1/">
  <title
     id="title5">MuJoCo Mojo Logo</title>
  <sodipodi:namedview
     id="namedview1"
     pagecolor="#ffffff"
     bordercolor="#000000"
     borderopacity="0.25"
     inkscape:showpageshadow="2"
     inkscape:pageopacity="0.0"
     inkscape:pagecheckerboard="true"
     inkscape:deskcolor="#d1d1d1"
     inkscape:document-units="mm"
     inkscape:zoom="1.1172287"
     inkscape:cx="775.13224"
     inkscape:cy="297.6114"
     inkscape:window-width="3840"
     inkscape:window-height="2050"
     inkscape:window-x="3828"
     inkscape:window-y="-12"
     inkscape:window-maximized="1"
     inkscape:current-layer="layer1"
     showgrid="true"
     labelstyle="default">
    <inkscape:page
       x="0"
       y="0"
       width="423.33353"
       height="135.46654"
       id="page2"
       margin="0"
       bleed="0" />
  </sodipodi:namedview>
  <defs
     id="defs1">
    <linearGradient
       id="linearGradient33"
       inkscape:label="Light to Cyan">
      <stop
         style="stop-color:#06b6d4;stop-opacity:1;"
         offset="0.35751292"
         id="stop10" />
      <stop
         style="stop-color:#e2e8f0;stop-opacity:1;"
         offset="0.92227978"
         id="stop12" />
    </linearGradient>
    <linearGradient
       id="linearGradient33-1"
       inkscape:label="Dark to Cyan">
      <stop
         style="stop-color:#06b6d4;stop-opacity:1;"
         offset="0.35751292"
         id="stop32" />
      <stop
         style="stop-color:#0f172a;stop-opacity:1;"
         offset="0.92227978"
         id="stop33" />
    </linearGradient>
    <linearGradient
       id="swatch8"
       inkscape:swatch="solid">
      <stop
         style="stop-color:#000000;stop-opacity:1;"
         offset="0"
         id="stop8" />
    </linearGradient>
    <linearGradient
       id="swatch7"
       inkscape:swatch="solid">
      <stop
         style="stop-color:#1e293b;stop-opacity:1;"
         offset="0"
         id="stop7" />
    </linearGradient>
    <linearGradient
       id="swatch4"
       inkscape:swatch="solid">
      <stop
         style="stop-color:#000000;stop-opacity:1;"
         offset="0"
         id="stop4" />
    </linearGradient>
    <linearGradient
       id="swatch6"
       inkscape:swatch="solid"
       inkscape:label="slate-500">
      <stop
         style="stop-color:#62748e;stop-opacity:1;"
         offset="0"
         id="stop6" />
    </linearGradient>
    <linearGradient
       id="swatch5"
       inkscape:swatch="solid"
       inkscape:label="cyan-500">
      <stop
         style="stop-color:#00b8db;stop-opacity:1;"
         offset="0"
         id="stop5" />
    </linearGradient>
    <radialGradient
       inkscape:collect="always"
       xlink:href="#linearGradient33"
       id="radialGradient32"
       cx="47"
       cy="47"
       fx="47"
       fy="47"
       r="16.316183"
       gradientTransform="matrix(1,0,0,1.1547005,0,-7.2709252)"
       gradientUnits="userSpaceOnUse" />
    <radialGradient
       inkscape:collect="always"
       xlink:href="#linearGradient33-1"
       id="radialGradient12"
       gradientUnits="userSpaceOnUse"
       gradientTransform="matrix(1,0,0,1.1547005,0,-7.2709252)"
       cx="47"
       cy="47"
       fx="47"
       fy="47"
       r="16.316183" />
    <rect
       x="530.90698"
       y="6.457725"
       width="1143.1482"
       height="520.78326"
       id="rect13" />
  </defs>
  <metadata
     id="metadata5">
    <rdf:RDF>
      <cc:Work
         rdf:about="">
        <dc:title>MuJoCo Mojo Logo</dc:title>
        <dc:creator>
          <cc:Agent>
            <dc:title>David Gable</dc:title>
          </cc:Agent>
        </dc:creator>
      </cc:Work>
    </rdf:RDF>
  </metadata>
  <g
     inkscape:groupmode="layer"
     id="layer1"
     inkscape:label="Layer 1">
    <rect
       style="display:inline;fill:#0f172a;fill-opacity:0;stroke:#0f172a;stroke-width:0;stroke-dasharray:none"
       id="rect12"
       width="135.46672"
       height="135.46672"
       x="0"
       y="-9.5290525e-05"
       inkscape:label="LOGO-TRANS-BG"
       sodipodi:insensitive="true"
       inkscape:export-filename="dark-logo.svg"
       inkscape:export-xdpi="96"
       inkscape:export-ydpi="96" />
    <g
       id="g8"
       transform="translate(-28.906597,-33.400236)"
       inkscape:label="DARK-LOGO"
       style="display:inline"
       sodipodi:insensitive="true"
       inkscape:export-filename="dark-logo.svg"
       inkscape:export-xdpi="96"
       inkscape:export-ydpi="96">
      <path
         sodipodi:type="star"
         style="display:inline;fill:url(#radialGradient12);stroke:#0f172a;stroke-width:2.2518;stroke-dasharray:none;stroke-opacity:1"
         id="path6"
         inkscape:flatsided="true"
         sodipodi:sides="6"
         sodipodi:cx="47"
         sodipodi:cy="47"
         sodipodi:r1="18.027756"
         sodipodi:r2="15.612495"
         sodipodi:arg1="0.52359878"
         sodipodi:arg2="1.0471976"
         inkscape:rounded="0"
         inkscape:randomized="0"
         d="M 62.612494,56.013878 47,65.027756 31.387506,56.013878 l 0,-18.027756 L 47,28.972244 62.612494,37.986122 Z"
         transform="matrix(3.5044454,0,0,3.5044454,-68.068977,-63.575426)"
         inkscape:label="hex"
         sodipodi:insensitive="true" />
      <path
         style="display:inline;fill:#334155;fill-opacity:1;stroke:#0f172a;stroke-width:7.89132;stroke-dasharray:none"
         d="M 78.516104,148.51653 105.87268,37.956293 M 133.22924,148.51653 105.87268,37.956293 M 133.22924,148.51653 160.58579,69.544935 M 78.516104,148.51653 51.15954,69.544935"
         id="path7"
         sodipodi:nodetypes="cccccccc"
         inkscape:label="w_path"
         transform="translate(-9.2327158,-6.8948478e-5)"
         sodipodi:insensitive="true" />
      <path
         style="display:inline;fill:#e2e8f0;stroke:#0f172a;stroke-width:7.89132;stroke-dasharray:none"
         d="M 78.516104,53.750612 105.87268,164.31087 M 133.22924,53.750614 105.87268,164.31087 M 133.22924,53.750614 160.58579,132.72222 M 78.516104,53.750612 51.159538,132.72222"
         id="path8"
         sodipodi:nodetypes="cccccccc"
         inkscape:label="m_path"
         transform="translate(-9.2327158,-6.8948478e-5)"
         sodipodi:insensitive="true" />
    </g>
    <g
       id="g5"
       transform="translate(-28.906595,-33.400266)"
       inkscape:label="LIGHT-LOGO"
       style="display:none"
       sodipodi:insensitive="true">
      <path
         sodipodi:type="star"
         style="display:inline;fill:url(#radialGradient32);fill-opacity:1;stroke:#e2e8f0;stroke-width:2.2518;stroke-dasharray:none;stroke-opacity:1"
         id="path10"
         inkscape:flatsided="true"
         sodipodi:sides="6"
         sodipodi:cx="47"
         sodipodi:cy="47"
         sodipodi:r1="18.027756"
         sodipodi:r2="15.612495"
         sodipodi:arg1="0.52359878"
         sodipodi:arg2="1.0471976"
         inkscape:rounded="0"
         inkscape:randomized="0"
         d="M 62.612494,56.013878 47,65.027756 31.387506,56.013878 l 0,-18.027756 L 47,28.972244 62.612494,37.986122 Z"
         transform="matrix(3.5044454,0,0,3.5044454,-68.068979,-63.575427)"
         inkscape:label="hex"
         sodipodi:insensitive="true" />
      <path
         style="display:inline;fill:#334155;fill-opacity:1;stroke:#e2e8f0;stroke-width:7.89132;stroke-dasharray:none"
         d="M 78.516104,148.51653 105.87268,37.956293 M 133.22924,148.51653 105.87268,37.956293 M 133.22924,148.51653 160.58579,69.544935 M 78.516104,148.51653 51.15954,69.544935"
         id="path29"
         sodipodi:nodetypes="cccccccc"
         inkscape:label="w_path"
         transform="translate(-9.2327158,-6.8948478e-5)"
         sodipodi:insensitive="true" />
      <path
         style="display:inline;fill:#e2e8f0;stroke:#e2e8f0;stroke-width:7.89132;stroke-dasharray:none"
         d="M 78.516104,53.750612 105.87268,164.31087 M 133.22924,53.750614 105.87268,164.31087 M 133.22924,53.750614 160.58579,132.72222 M 78.516104,53.750612 51.159538,132.72222"
         id="path30"
         sodipodi:nodetypes="cccccccc"
         inkscape:label="m_path"
         transform="translate(-9.2327158,-6.8948478e-5)"
         sodipodi:insensitive="true" />
    </g>
    <g
       id="g6"
       transform="translate(-138.61709,-29.665472)"
       inkscape:label="TEXT"
       style="display:inline"
       sodipodi:insensitive="true">
      <path
         style="font-weight:bold;font-size:256px;line-height:1;font-family:'Segoe UI';-inkscape-font-specification:'Segoe UI Bold';letter-spacing:0px;white-space:pre;fill:#06b6d4;stroke:#06b6d4;stroke-width:15.1181"
         d="m 755.65625,205.05016 h -39.875 V 97.800163 q 0,-17.375 1.5,-38.375 h -1 q -3.125,16.5 -5.625,23.75 l -42,121.874997 h -33 l -42.75,-120.624997 q -1.75,-4.875 -5.625,-25 h -1.125 q 1.625,26.5 1.625,46.499997 v 99.125 h -36.375 V 25.800163 h 59.125 l 36.625,106.249997 q 4.375,12.75 6.375,25.625 h 0.75 q 3.375,-14.875 7.125,-25.875 l 36.625,-105.999997 h 57.625 z m 186.875,-77.625 q 0,80.75 -75.25,80.75 -73,0 -73,-78.875 V 25.800163 h 40.5 V 129.80016 q 0,43.5 34,43.5 33.375,0 33.375,-42 V 25.800163 h 40.375 z m 109.12505,6.5 q 0,36 -16.75,55.125 -16.6251,19.125 -48.25005,19.125 -14.125,0 -26.125,-4.875 v -37.875 q 10.375,7.875 23.25,7.875 27.62495,0 27.62495,-41 V 25.800163 h 40.2501 z m 115,74.25 q -38.5,0 -62.75,-25 -24.25,-25.125 -24.25,-65.375 0,-42.499997 24.625,-68.749997 24.625,-26.25 65.25,-26.25 38.375,0 62,25.125 23.75,25.125 23.75,66.249997 0,42.25 -24.625,68.125 -24.5,25.875 -64,25.875 z m 1.75,-150.624997 q -21.25,0 -33.75,16 -12.5,15.875 -12.5,42.124997 0,26.625 12.5,42.125 12.5,15.5 32.75,15.5 20.875,0 33.125,-15 12.25,-15.125 12.25,-41.875 0,-27.874997 -11.875,-43.374997 -11.875,-15.5 -32.5,-15.5 z m 245.125,141.124997 q -19.625,9.5 -51.25,9.5 -41.25,0 -64.875,-24.25 -23.625,-24.25 -23.625,-64.625 0,-42.999997 26.5,-69.749997 26.625,-26.75 69,-26.75 26.25,0 44.25,6.625 v 38.875 q -18,-10.75 -41,-10.75 -25.25,0 -40.75,15.875 -15.5,15.875 -15.5,42.999997 0,26 14.625,41.5 14.625,15.375 39.375,15.375 23.625,0 43.25,-11.5 z m 103.875,9.5 q -38.5,0 -62.75,-25 -24.25,-25.125 -24.25,-65.375 0,-42.499997 24.625,-68.749997 24.625,-26.25 65.25,-26.25 38.375,0 62,25.125 23.75,25.125 23.75,66.249997 0,42.25 -24.625,68.125 -24.5,25.875 -64,25.875 z m 1.75,-150.624997 q -21.25,0 -33.75,16 -12.5,15.875 -12.5,42.124997 0,26.625 12.5,42.125 12.5,15.5 32.75,15.5 20.875,0 33.125,-15 12.25,-15.125 12.25,-41.875 0,-27.874997 -11.875,-43.374997 -11.875,-15.5 -32.5,-15.5 z M 755.65625,461.05016 h -39.875 v -107.25 q 0,-17.375 1.5,-38.375 h -1 q -3.125,16.5 -5.625,23.75 l -42,121.875 h -33 l -42.75,-120.625 q -1.75,-4.875 -5.625,-25 h -1.125 q 1.625,26.5 1.625,46.5 v 99.125 h -36.375 v -179.25 h 59.125 l 36.625,106.25 q 4.375,12.75 6.375,25.625 h 0.75 q 3.375,-14.875 7.125,-25.875 l 36.625,-106 h 57.625 z m 116.5,3.125 q -38.5,0 -62.75,-25 -24.25,-25.125 -24.25,-65.375 0,-42.5 24.625,-68.75 24.625,-26.25 65.25,-26.25 38.375,0 62,25.125 23.75,25.125 23.75,66.25 0,42.25 -24.625,68.125 -24.5,25.875 -64,25.875 z m 1.75,-150.625 q -21.25,0 -33.75,16 -12.5,15.875 -12.5,42.125 0,26.625 12.5,42.125 12.5,15.5 32.75,15.5 20.875,0 33.125,-15 12.25,-15.125 12.25,-41.875 0,-27.875 -11.875,-43.375 -11.875,-15.5 -32.5,-15.5 z m 188.87505,76.375 q 0,36 -16.75,55.125 -16.625,19.125 -48.25005,19.125 -14.125,0 -26.125,-4.875 v -37.875 q 10.375,7.875 23.25,7.875 27.62495,0 27.62495,-41 v -106.5 h 40.2501 z m 115,74.25 q -38.5,0 -62.75,-25 -24.25,-25.125 -24.25,-65.375 0,-42.5 24.625,-68.75 24.625,-26.25 65.25,-26.25 38.375,0 62,25.125 23.75,25.125 23.75,66.25 0,42.25 -24.625,68.125 -24.5,25.875 -64,25.875 z m 1.75,-150.625 q -21.25,0 -33.75,16 -12.5,15.875 -12.5,42.125 0,26.625 12.5,42.125 12.5,15.5 32.75,15.5 20.875,0 33.125,-15 12.25,-15.125 12.25,-41.875 0,-27.875 -11.875,-43.375 -11.875,-15.5 -32.5,-15.5 z"
         id="text1"
         inkscape:label="text_path"
         transform="matrix(0.26458345,0,0,0.26458345,128.73718,32.975931)"
         aria-label="MUJOCO&#10;MOJO&#10;" />
      <text
         xml:space="preserve"
         transform="matrix(0.26458345,0,0,0.26458345,128.73718,32.975931)"
         id="text13"
         style="font-style:normal;font-variant:normal;font-weight:bold;font-stretch:normal;font-size:128px;line-height:1;font-family:'Segoe UI';-inkscape-font-specification:'Segoe UI Bold';letter-spacing:0.1px;writing-mode:lr-tb;direction:ltr;white-space:pre;shape-inside:url(#rect13);display:none;fill:#06b6d4;stroke:#06b6d4;stroke-width:15.1181"
         inkscape:label="text_original"
         sodipodi:insensitive="true"><tspan
           x="530.90625"
           y="205.05016"
           id="tspan2"><tspan
             style="font-size:256px;letter-spacing:0px"
             id="tspan1">MUJOCO
</tspan></tspan><tspan
           x="530.90625"
           y="461.05016"
           id="tspan5"><tspan
             style="font-size:256px;letter-spacing:0px"
             id="tspan3">MOJO</tspan><tspan
             dx="-0.1"
             id="tspan4">
</tspan></tspan></text>
    </g>
  </g>
</svg>
